<?xml version="1.0" encoding="utf-8"?>
<!-- Generator: Adobe Illustrator 21.0.1, SVG Export Plug-In . SVG Version: 6.00 Build 0)  -->
<svg version="1.1" id="Lager_1" xmlns="http://www.w3.org/2000/svg" xmlns:xlink="http://www.w3.org/1999/xlink" x="0px" y="0px"
	 viewBox="0 0 600 600" style="enable-background:new 0 0 600 600;" xml:space="preserve">
<style type="text/css">
	.st0{fill:#4B4A4B;}
	.st1{fill:none;stroke:#4B4A4B;stroke-miterlimit:10;}
</style>
<path class="st0" d="M260.4,267.6v-12.2c0-0.6,0.4-1,1-1h3.3c0.6,0,1,0.4,1,1v12.2c0,0.6-0.4,1-1,1h-3.3
	C260.8,268.6,260.4,268.2,260.4,267.6z"/>
<path class="st0" d="M269,267.6v-12.2c0-0.6,0.4-1,1-1h3.3c0.6,0,1,0.4,1,1v12.2c0,0.6-0.4,1-1,1H270
	C269.5,268.6,269,268.2,269,267.6z"/>
<path class="st0" d="M329.7,267.6v-12.2c0-0.6,0.4-1,1-1h3.3c0.6,0,1,0.4,1,1v12.2c0,0.6-0.4,1-1,1h-3.3
	C330.1,268.6,329.7,268.2,329.7,267.6z"/>
<path class="st0" d="M338.4,267.6v-12.2c0-0.6,0.4-1,1-1h3.3c0.6,0,1,0.4,1,1v12.2c0,0.6-0.4,1-1,1h-3.3
	C338.8,268.6,338.4,268.2,338.4,267.6z"/>
<path class="st1" d="M361.8,276.3H240.6c-0.6,0-1.1,0-1.7,0"/>
<path class="st1" d="M239.9,263.9h121c0.5,0,1,0.4,1,1v79.8c0,0.5-0.4,1-1,1h-121c-0.5,0-1-0.4-1-1v-79.8
	C238.9,264.3,239.3,263.9,239.9,263.9z"/>
</svg>
