<?xml version="1.0" encoding="utf-8"?>
<!-- Generator: Adobe Illustrator 21.0.1, SVG Export Plug-In . SVG Version: 6.00 Build 0)  -->
<svg version="1.1" id="Lager_1" xmlns="http://www.w3.org/2000/svg" xmlns:xlink="http://www.w3.org/1999/xlink" x="0px" y="0px"
	 viewBox="0 0 143 110" style="enable-background:new 0 0 143 110;" xml:space="preserve">
<style type="text/css">
	.st0{fill:#4B4A4B;}
	.st1{fill:none;stroke:#4B4A4B;stroke-miterlimit:10;}
</style>
<path class="st0" d="M30.4,19.6V7.4c0-0.6,0.4-1,1-1h3.3c0.6,0,1,0.4,1,1v12.2c0,0.6-0.4,1-1,1h-3.3C30.8,20.6,30.4,20.2,30.4,19.6z
	"/>
<path class="st0" d="M39,19.6V7.4c0-0.6,0.4-1,1-1h3.3c0.6,0,1,0.4,1,1v12.2c0,0.6-0.4,1-1,1H40C39.5,20.6,39,20.2,39,19.6z"/>
<path class="st0" d="M99.7,19.6V7.4c0-0.6,0.4-1,1-1h3.3c0.6,0,1,0.4,1,1v12.2c0,0.6-0.4,1-1,1h-3.3C100.1,20.6,99.7,20.2,99.7,19.6
	z"/>
<path class="st0" d="M108.4,19.6V7.4c0-0.6,0.4-1,1-1h3.3c0.6,0,1,0.4,1,1v12.2c0,0.6-0.4,1-1,1h-3.3
	C108.8,20.6,108.4,20.2,108.4,19.6z"/>
<path class="st1" d="M131.8,28.3H10.6c-0.6,0-1.1,0-1.7,0"/>
<path class="st1" d="M9.9,15.9h121c0.5,0,1,0.4,1,1v79.8c0,0.5-0.4,1-1,1H9.9c-0.5,0-1-0.4-1-1V16.9C8.9,16.3,9.3,15.9,9.9,15.9z"/>
</svg>
