<?xml version="1.0" encoding="utf-8"?>
<!-- Generator: Adobe Illustrator 21.0.1, SVG Export Plug-In . SVG Version: 6.00 Build 0)  -->
<svg version="1.1" id="Lager_1" xmlns="http://www.w3.org/2000/svg" xmlns:xlink="http://www.w3.org/1999/xlink" x="0px" y="0px"
	 viewBox="0 0 117 122" style="enable-background:new 0 0 117 122;" xml:space="preserve">
<style type="text/css">
	.st0{fill:none;stroke:#4B4A4B;stroke-miterlimit:10;}
	.st1{fill:#4B4A4B;}
</style>
<path class="st0" d="M21.4,55.3H10.8c-0.6,0-1-0.4-1-1V51c0-0.6,0.4-1,1-1h10.5c0.6,0,1,0.4,1,1v3.3C22.4,54.8,21.9,55.3,21.4,55.3z
	"/>
<path class="st0" d="M104.4,55.3H93.9c-0.6,0-1-0.4-1-1V51c0-0.6,0.4-1,1-1h10.5c0.6,0,1,0.4,1,1v3.3
	C105.4,54.8,105,55.3,104.4,55.3z"/>
<path class="st1" d="M63.6,117.2H51.4c-0.6,0-1-0.4-1-1v-3.3c0-0.6,0.4-1,1-1h12.2c0.6,0,1,0.4,1,1v3.3
	C64.6,116.7,64.1,117.2,63.6,117.2z"/>
<path class="st0" d="M99.2,55.3v18c0,0.9-0.8,1.7-1.7,1.7h-0.9h-0.9"/>
<path class="st0" d="M57.5,78.4v33.1c0,0.2,0,0.3,0,0.5"/>
<path class="st0" d="M19.3,75h-0.9h-0.9c-0.9,0-1.7-0.8-1.7-1.7v-18"/>
<path class="st0" d="M81.1,58.9H33.9c-0.5,0-1-0.4-1-1v-50c0-0.5,0.4-1,1-1h47.2c0.5,0,1,0.4,1,1v50C82.1,58.4,81.6,58.9,81.1,58.9z
	"/>
<path class="st0" d="M19.7,77.4V64.9c0-0.5,0.4-1,1-1h73.5c0.5,0,1,0.4,1,1v12.4c0,0.5-0.4,1-1,1H20.7
	C20.2,78.4,19.7,77.9,19.7,77.4z"/>
</svg>
