<?xml version="1.0" encoding="utf-8"?>
<!-- Generator: Adobe Illustrator 21.0.1, SVG Export Plug-In . SVG Version: 6.00 Build 0)  -->
<svg version="1.1" id="Lager_1" xmlns="http://www.w3.org/2000/svg" xmlns:xlink="http://www.w3.org/1999/xlink" x="0px" y="0px"
	 viewBox="0 0 600 600" style="enable-background:new 0 0 600 600;" xml:space="preserve">
<style type="text/css">
	.st0{fill:none;stroke:#4B4A4B;stroke-miterlimit:10;}
	.st1{fill:#4B4A4B;}
</style>
<path class="st0" d="M264.4,293.3h-10.5c-0.6,0-1-0.4-1-1V289c0-0.6,0.4-1,1-1h10.5c0.6,0,1,0.4,1,1v3.3
	C265.4,292.8,264.9,293.3,264.4,293.3z"/>
<path class="st0" d="M347.4,293.3h-10.5c-0.6,0-1-0.4-1-1V289c0-0.6,0.4-1,1-1h10.5c0.6,0,1,0.4,1,1v3.3
	C348.4,292.8,348,293.3,347.4,293.3z"/>
<path class="st1" d="M306.6,355.2h-12.2c-0.6,0-1-0.4-1-1v-3.3c0-0.6,0.4-1,1-1h12.2c0.6,0,1,0.4,1,1v3.3
	C307.6,354.7,307.1,355.2,306.6,355.2z"/>
<path class="st0" d="M342.2,293.3v18c0,0.9-0.8,1.7-1.7,1.7h-0.9h-0.9"/>
<path class="st0" d="M300.5,316.4v33.1c0,0.2,0,0.3,0,0.5"/>
<path class="st0" d="M262.3,313h-0.9h-0.9c-0.9,0-1.7-0.8-1.7-1.7v-18"/>
<path class="st0" d="M324.1,296.9h-47.2c-0.5,0-1-0.4-1-1v-50c0-0.5,0.4-1,1-1h47.2c0.5,0,1,0.4,1,1v50
	C325.1,296.4,324.6,296.9,324.1,296.9z"/>
<path class="st0" d="M262.7,315.4v-12.4c0-0.5,0.4-1,1-1h73.5c0.5,0,1,0.4,1,1v12.4c0,0.5-0.4,1-1,1h-73.5
	C263.2,316.4,262.7,315.9,262.7,315.4z"/>
</svg>
