<?xml version="1.0" encoding="utf-8"?>
<!-- Generator: Adobe Illustrator 21.0.1, SVG Export Plug-In . SVG Version: 6.00 Build 0)  -->
<svg version="1.1" id="Lager_1" xmlns="http://www.w3.org/2000/svg" xmlns:xlink="http://www.w3.org/1999/xlink" x="0px" y="0px"
	 viewBox="0 0 600 600" style="enable-background:new 0 0 600 600;" xml:space="preserve">
<style type="text/css">
	.st0{fill:none;stroke:#4B4A4B;stroke-miterlimit:10;}
	.st1{fill:#FFFFFF;stroke:#4B4A4B;stroke-miterlimit:10;}
</style>
<path class="st0" d="M353.4,285.4v39.8c0,0.5-0.4,1-1,1h-27.5c-0.5,0-1-0.4-1-1v-39.8"/>
<path class="st0" d="M307.7,314.7v9.5c0,1.1-0.9,2-2,2h-52c-1.1,0-2-0.9-2-2v-9.5"/>
<path class="st1" d="M251.7,307.7c1.7-14,13.6-24.8,28-24.8c14.4,0,26.3,10.8,28,24.8"/>
<path class="st0" d="M315.8,314.7h-72.1c-0.6,0-1-0.4-1-1v-4.9c0-0.6,0.4-1,1-1h72.1c0.6,0,1,0.4,1,1v4.9
	C316.8,314.2,316.3,314.7,315.8,314.7z"/>
<path class="st0" d="M357.4,285.4H320c-0.6,0-1-0.4-1-1v-2.9c0-0.6,0.4-1,1-1h37.3c0.6,0,1,0.4,1,1v2.9
	C358.4,284.9,357.9,285.4,357.4,285.4z"/>
<path class="st0" d="M323.4,280.5c1.2-3.7,7.5-6.5,15.2-6.5c7.7,0,14.1,2.8,15.2,6.5"/>
</svg>
