<?xml version="1.0" encoding="utf-8"?>
<!-- Generator: Adobe Illustrator 21.0.1, SVG Export Plug-In . SVG Version: 6.00 Build 0)  -->
<svg version="1.1" id="Lager_1" xmlns="http://www.w3.org/2000/svg" xmlns:xlink="http://www.w3.org/1999/xlink" x="0px" y="0px"
	 viewBox="0 0 125 73" style="enable-background:new 0 0 125 73;" xml:space="preserve">
<style type="text/css">
	.st0{fill:none;stroke:#4B4A4B;stroke-miterlimit:10;}
	.st1{fill:#FFFFFF;stroke:#4B4A4B;stroke-miterlimit:10;}
</style>
<path class="st0" d="M113.4,23.4v39.8c0,0.6-0.4,1-1,1H84.9c-0.6,0-1-0.4-1-1V23.4"/>
<path class="st0" d="M67.7,52.7v9.5c0,1.1-0.9,2-2,2h-52c-1.1,0-2-0.9-2-2v-9.5"/>
<path class="st1" d="M11.7,45.7c1.7-14,13.6-24.8,28-24.8s26.3,10.8,28,24.8"/>
<path class="st0" d="M75.8,52.7H3.7c-0.6,0-1-0.4-1-1v-4.9c0-0.6,0.4-1,1-1h72.1c0.6,0,1,0.4,1,1v4.9C76.8,52.2,76.3,52.7,75.8,52.7
	z"/>
<path class="st0" d="M117.4,23.4H80c-0.6,0-1-0.4-1-1v-2.9c0-0.6,0.4-1,1-1h37.3c0.6,0,1,0.4,1,1v2.9
	C118.4,22.9,117.9,23.4,117.4,23.4z"/>
<path class="st0" d="M83.4,18.5c1.2-3.7,7.5-6.5,15.2-6.5s14.1,2.8,15.2,6.5"/>
</svg>
