<?xml version="1.0" encoding="utf-8"?>
<!-- Generator: Adobe Illustrator 21.0.1, SVG Export Plug-In . SVG Version: 6.00 Build 0)  -->
<svg version="1.1" id="Lager_1" xmlns="http://www.w3.org/2000/svg" xmlns:xlink="http://www.w3.org/1999/xlink" x="0px" y="0px"
	 viewBox="0 0 600 600" style="enable-background:new 0 0 600 600;" xml:space="preserve">
<style type="text/css">
	.st0{fill:#4B4A4B;}
	.st1{fill:none;stroke:#4B4A4B;stroke-miterlimit:10;}
</style>
<circle class="st0" cx="325.2" cy="337.3" r="4.9"/>
<circle class="st0" cx="343.2" cy="337.3" r="4.9"/>
<path class="st0" d="M255.5,356.9v-5c0-0.6,0.4-1,1-1h4.3c0.6,0,1,0.4,1,1v5c0,0.6-0.4,1-1,1h-4.3
	C255.9,357.9,255.5,357.5,255.5,356.9z"/>
<path class="st0" d="M339.1,356.9v-5c0-0.6,0.4-1,1-1h4.3c0.6,0,1,0.4,1,1v5c0,0.6-0.4,1-1,1h-4.3
	C339.6,357.9,339.1,357.5,339.1,356.9z"/>
<path class="st1" d="M360.9,350.9h-121c-0.5,0-1-0.4-1-1v-40.8c0-0.5,0.4-1,1-1h121c0.5,0,1,0.4,1,1v40.8
	C361.9,350.5,361.4,350.9,360.9,350.9z"/>
<path class="st1" d="M310.3,255.4h47.2h1.5c0.3,0,0.6,0.1,0.8,0.3c0.2,0.2,0.3,0.5,0.3,0.8v1.5v49c0,0.6-0.5,1.1-1.1,1.1h-1.5
	c-0.6,0-1.1-0.5-1.1-1.1v-47.9h-46.1"/>
<path class="st1" d="M309.3,261.1h-16.9c-0.6,0-1-0.4-1-1v-16.9c0-0.6,0.4-1,1-1h16.9c0.6,0,1,0.4,1,1v16.9
	C310.3,260.6,309.9,261.1,309.3,261.1z"/>
</svg>
