<?xml version="1.0" encoding="utf-8"?>
<!-- Generator: Adobe Illustrator 21.0.1, SVG Export Plug-In . SVG Version: 6.00 Build 0)  -->
<svg version="1.1" id="Lager_1" xmlns="http://www.w3.org/2000/svg" xmlns:xlink="http://www.w3.org/1999/xlink" x="0px" y="0px"
	 viewBox="0 0 136 136" style="enable-background:new 0 0 136 136;" xml:space="preserve">
<style type="text/css">
	.st0{fill:#4B4A4B;}
	.st1{fill:none;stroke:#4B4A4B;stroke-miterlimit:10;}
</style>
<circle class="st0" cx="92.2" cy="104.3" r="4.9"/>
<circle class="st0" cx="110.2" cy="104.3" r="4.9"/>
<path class="st0" d="M22.5,123.9v-5c0-0.6,0.4-1,1-1h4.3c0.6,0,1,0.4,1,1v5c0,0.6-0.4,1-1,1h-4.3C22.9,124.9,22.5,124.5,22.5,123.9z
	"/>
<path class="st0" d="M106.1,123.9v-5c0-0.6,0.4-1,1-1h4.3c0.6,0,1,0.4,1,1v5c0,0.6-0.4,1-1,1h-4.3
	C106.6,124.9,106.1,124.5,106.1,123.9z"/>
<path class="st1" d="M127.9,117.9H6.9c-0.5,0-1-0.4-1-1V76.1c0-0.5,0.4-1,1-1h121c0.5,0,1,0.4,1,1v40.8
	C128.9,117.5,128.4,117.9,127.9,117.9z"/>
<path class="st1" d="M77.3,22.4h47.2h1.5c0.3,0,0.6,0.1,0.8,0.3c0.2,0.2,0.3,0.5,0.3,0.8V25v49c0,0.6-0.5,1.1-1.1,1.1h-1.5
	c-0.6,0-1.1-0.5-1.1-1.1V26.1h-46"/>
<path class="st1" d="M76.3,28.1H59.4c-0.6,0-1-0.4-1-1V10.2c0-0.6,0.4-1,1-1h16.9c0.6,0,1,0.4,1,1v16.9
	C77.3,27.6,76.9,28.1,76.3,28.1z"/>
</svg>
