<?xml version="1.0" encoding="utf-8"?>
<!-- Generator: Adobe Illustrator 21.0.1, SVG Export Plug-In . SVG Version: 6.00 Build 0)  -->
<svg version="1.1" id="Lager_1" xmlns="http://www.w3.org/2000/svg" xmlns:xlink="http://www.w3.org/1999/xlink" x="0px" y="0px"
	 viewBox="0 0 600 600" style="enable-background:new 0 0 600 600;" xml:space="preserve">
<style type="text/css">
	.st0{fill:#4B4A4B;}
	.st1{fill:none;stroke:#4B4A4B;stroke-miterlimit:10;}
</style>
<path class="st0" d="M270.4,255.8h40.2c0.3,0,0.5,0.2,0.5,0.5v0.5c0,0.3-0.2,0.5-0.5,0.5h-40.2c-0.3,0-0.5-0.2-0.5-0.5v-0.5
	C270,256,270.2,255.8,270.4,255.8z"/>
<path class="st0" d="M270.4,258h40.2c0.3,0,0.5,0.2,0.5,0.5v0.5c0,0.3-0.2,0.5-0.5,0.5h-40.2c-0.3,0-0.5-0.2-0.5-0.5v-0.5
	C270,258.3,270.2,258,270.4,258z"/>
<path class="st0" d="M270.4,260.3h40.2c0.3,0,0.5,0.2,0.5,0.5v0.5c0,0.3-0.2,0.5-0.5,0.5h-40.2c-0.3,0-0.5-0.2-0.5-0.5v-0.5
	C270,260.5,270.2,260.3,270.4,260.3z"/>
<path class="st0" d="M270.4,262.5h40.2c0.3,0,0.5,0.2,0.5,0.5v0.5c0,0.3-0.2,0.5-0.5,0.5h-40.2c-0.3,0-0.5-0.2-0.5-0.5V263
	C270,262.7,270.2,262.5,270.4,262.5z"/>
<path class="st0" d="M270.6,264.8h40.2c0.3,0,0.5,0.2,0.5,0.5v0.5c0,0.3-0.2,0.5-0.5,0.5h-40.2c-0.3,0-0.5-0.2-0.5-0.5v-0.5
	C270.2,265,270.4,264.8,270.6,264.8z"/>
<path class="st0" d="M270.6,267h40.2c0.3,0,0.5,0.2,0.5,0.5v0.5c0,0.3-0.2,0.5-0.5,0.5h-40.2c-0.3,0-0.5-0.2-0.5-0.5v-0.5
	C270.2,267.2,270.4,267,270.6,267z"/>
<path class="st0" d="M270.6,269.2h40.2c0.3,0,0.5,0.2,0.5,0.5v0.5c0,0.3-0.2,0.5-0.5,0.5h-40.2c-0.3,0-0.5-0.2-0.5-0.5v-0.5
	C270.2,269.4,270.4,269.2,270.6,269.2z"/>
<path class="st0" d="M270.6,271.5h26.2c0.3,0,0.5,0.2,0.5,0.5v0.5c0,0.3-0.2,0.5-0.5,0.5h-26.2c-0.3,0-0.5-0.2-0.5-0.5v-0.5
	C270.2,271.7,270.4,271.5,270.6,271.5z"/>
<g>
	<path class="st0" d="M338.6,320.6L301,281.8c-0.4-0.4-0.4-1,0-1.4l4.4-4.3c0.4-0.4,1-0.4,1.4,0l37.6,38.8c0.4,0.4,0.4,1,0,1.4
		l-4.4,4.3C339.6,321,338.9,321,338.6,320.6z"/>
	<polyline class="st0" points="301.3,281.3 297.3,272.2 306.3,276.4 	"/>
</g>
<path class="st1" d="M324.1,356.6h-66.7c-0.5,0-1-0.4-1-1V245.1c0-0.5,0.4-1,1-1h66.7c0.5,0,1,0.4,1,1v110.5
	C325.1,356.1,324.6,356.6,324.1,356.6z"/>
</svg>
