<?xml version="1.0" encoding="utf-8"?>
<!-- Generator: Adobe Illustrator 21.0.1, SVG Export Plug-In . SVG Version: 6.00 Build 0)  -->
<svg version="1.1" id="Lager_1" xmlns="http://www.w3.org/2000/svg" xmlns:xlink="http://www.w3.org/1999/xlink" x="0px" y="0px"
	 viewBox="0 0 103 131" style="enable-background:new 0 0 103 131;" xml:space="preserve">
<style type="text/css">
	.st0{fill:#4B4A4B;}
	.st1{fill:none;stroke:#4B4A4B;stroke-miterlimit:10;}
</style>
<path class="st0" d="M23.4,20.8h40.2c0.3,0,0.5,0.2,0.5,0.5v0.5c0,0.3-0.2,0.5-0.5,0.5H23.4c-0.3,0-0.5-0.2-0.5-0.5v-0.5
	C23,21,23.2,20.8,23.4,20.8z"/>
<path class="st0" d="M23.4,23h40.2c0.3,0,0.5,0.2,0.5,0.5V24c0,0.3-0.2,0.5-0.5,0.5H23.4c-0.3,0-0.5-0.2-0.5-0.5v-0.5
	C23,23.3,23.2,23,23.4,23z"/>
<path class="st0" d="M23.4,25.3h40.2c0.3,0,0.5,0.2,0.5,0.5v0.5c0,0.3-0.2,0.5-0.5,0.5H23.4c-0.3,0-0.5-0.2-0.5-0.5v-0.5
	C23,25.5,23.2,25.3,23.4,25.3z"/>
<path class="st0" d="M23.4,27.5h40.2c0.3,0,0.5,0.2,0.5,0.5v0.5c0,0.3-0.2,0.5-0.5,0.5H23.4c-0.3,0-0.5-0.2-0.5-0.5V28
	C23,27.7,23.2,27.5,23.4,27.5z"/>
<path class="st0" d="M23.6,29.8h40.2c0.3,0,0.5,0.2,0.5,0.5v0.5c0,0.3-0.2,0.5-0.5,0.5H23.6c-0.3,0-0.5-0.2-0.5-0.5v-0.5
	C23.2,30,23.4,29.8,23.6,29.8z"/>
<path class="st0" d="M23.6,32h40.2c0.3,0,0.5,0.2,0.5,0.5V33c0,0.3-0.2,0.5-0.5,0.5H23.6c-0.3,0-0.5-0.2-0.5-0.5v-0.5
	C23.2,32.2,23.4,32,23.6,32z"/>
<path class="st0" d="M23.6,34.2h40.2c0.3,0,0.5,0.2,0.5,0.5v0.5c0,0.3-0.2,0.5-0.5,0.5H23.6c-0.3,0-0.5-0.2-0.5-0.5v-0.5
	C23.2,34.4,23.4,34.2,23.6,34.2z"/>
<path class="st0" d="M23.6,36.5h26.2c0.3,0,0.5,0.2,0.5,0.5v0.5c0,0.3-0.2,0.5-0.5,0.5H23.6c-0.3,0-0.5-0.2-0.5-0.5v-0.5
	C23.2,36.7,23.4,36.5,23.6,36.5z"/>
<g>
	<path class="st0" d="M91.6,85.6L54,46.8c-0.4-0.4-0.4-1,0-1.4l4.4-4.3c0.4-0.4,1-0.4,1.4,0l37.6,38.8c0.4,0.4,0.4,1,0,1.4L93,85.6
		C92.6,86,91.9,86,91.6,85.6z"/>
	<polyline class="st0" points="54.3,46.3 50.3,37.2 59.3,41.4 	"/>
</g>
<path class="st1" d="M77.1,121.6H10.4c-0.5,0-1-0.4-1-1V10.1c0-0.5,0.4-1,1-1h66.7c0.5,0,1,0.4,1,1v110.5
	C78.1,121.1,77.6,121.6,77.1,121.6z"/>
</svg>
