<?xml version="1.0" encoding="utf-8"?>
<!-- Generator: Adobe Illustrator 21.0.1, SVG Export Plug-In . SVG Version: 6.00 Build 0)  -->
<svg version="1.1" id="Lager_1" xmlns="http://www.w3.org/2000/svg" xmlns:xlink="http://www.w3.org/1999/xlink" x="0px" y="0px"
	 viewBox="0 0 84.5 123" style="enable-background:new 0 0 84.5 123;" xml:space="preserve">
<style type="text/css">
	.st0{fill:none;stroke:#4B4A4B;stroke-miterlimit:10;}
	.st1{fill:#FFFFFF;stroke:#4B4A4B;stroke-miterlimit:10;}
</style>
<path class="st0" d="M74.2,64v51.5c0,0.5-0.4,1-1,1h-63c-0.6,0-1-0.4-1-1V64"/>
<line class="st0" x1="23.9" y1="33.2" x2="23.4" y2="33.2"/>
<line class="st0" x1="60" y1="33.2" x2="59.5" y2="33.2"/>
<path class="st1" d="M62.1,23.4c0,3.2-0.7,6.2-2,8.8c-1.2,2.4-2.8,4.6-4.8,6.4c-3.6,3.2-8.3,5.1-13.5,5.1s-9.9-1.9-13.5-5.1
	c-2-1.8-3.6-3.9-4.8-6.4c-1.3-2.7-2-5.7-2-8.8C21.4,12.1,30.5,3,41.7,3S62.1,12.1,62.1,23.4z"/>
<path class="st0" d="M9.2,64.5c0-12.2,6.7-22.8,16.7-28.4"/>
<path class="st0" d="M57.5,36.1c9.9,5.6,16.7,16.2,16.7,28.4"/>
</svg>
