<?xml version="1.0" encoding="utf-8"?>
<!-- Generator: Adobe Illustrator 21.0.1, SVG Export Plug-In . SVG Version: 6.00 Build 0)  -->
<svg width="100%" height="100%" version="1.1" id="Lager_1" xmlns="http://www.w3.org/2000/svg" xmlns:xlink="http://www.w3.org/1999/xlink" x="0px" y="0px"
	 viewBox="0 0 600 600" style="enable-background:new 0 0 600 600;" xml:space="preserve">
<style type="text/css">
	.st0{fill:none;stroke:#4B4A4B;stroke-miterlimit:10;}
	.st1{fill:#FFFFFF;stroke:#4B4A4B;stroke-miterlimit:10;}
</style>
<path class="st0" d="M332.7,304v51.5c0,0.5-0.4,1-1,1h-63c-0.6,0-1-0.4-1-1V304"/>
<line class="st0" x1="282.4" y1="273.2" x2="281.9" y2="273.2"/>
<line class="st0" x1="318.5" y1="273.2" x2="318" y2="273.2"/>
<path class="st1" d="M320.6,263.4c0,3.2-0.7,6.2-2,8.8c-1.2,2.4-2.8,4.6-4.8,6.4c-3.6,3.2-8.3,5.1-13.5,5.1s-9.9-1.9-13.5-5.1
	c-2-1.8-3.6-3.9-4.8-6.4c-1.3-2.7-2-5.7-2-8.8c0-11.2,9.1-20.4,20.3-20.4S320.6,252.1,320.6,263.4z"/>
<path class="st0" d="M267.7,304.5c0-12.2,6.7-22.9,16.7-28.4"/>
<path class="st0" d="M316,276.1c10,5.6,16.7,16.2,16.7,28.4"/>
</svg>
