<?xml version="1.0" encoding="utf-8"?>
<!-- Generator: Adobe Illustrator 21.0.1, SVG Export Plug-In . SVG Version: 6.00 Build 0)  -->
<svg version="1.1" id="Lager_1" xmlns="http://www.w3.org/2000/svg" xmlns:xlink="http://www.w3.org/1999/xlink" x="0px" y="0px"
	 viewBox="0 0 141 82" style="enable-background:new 0 0 141 82;" xml:space="preserve">
<style type="text/css">
	.st0{fill:#4B4A4B;}
	.st1{fill:none;stroke:#4B4A4B;stroke-miterlimit:10;}
	.st2{fill:#FFFFFF;stroke:#4B4A4B;stroke-miterlimit:10;}
</style>
<path class="st0" d="M50.2,51.9H25.1c-0.6,0-1-0.4-1-1v-4.3c0-0.6,0.4-1,1-1h25.1c0.6,0,1,0.4,1,1v4.3
	C51.2,51.5,50.8,51.9,50.2,51.9z"/>
<path class="st0" d="M50.2,43.3H25.1c-0.6,0-1-0.4-1-1V38c0-0.6,0.4-1,1-1h25.1c0.6,0,1,0.4,1,1v4.3C51.2,42.9,50.8,43.3,50.2,43.3z
	"/>
<path class="st0" d="M24.8,68.3v-5c0-0.6,0.4-1,1-1h4.3c0.6,0,1,0.4,1,1v5c0,0.6-0.4,1-1,1h-4.3C25.2,69.3,24.8,68.9,24.8,68.3z"/>
<path class="st0" d="M108.5,68.3v-5c0-0.6,0.4-1,1-1h4.3c0.6,0,1,0.4,1,1v5c0,0.6-0.4,1-1,1h-4.3C108.9,69.3,108.5,68.9,108.5,68.3z
	"/>
<path class="st1" d="M130.3,62.5H9.4c-0.5,0-1-0.4-1-1V20.7c0-0.5,0.4-1,1-1h121c0.5,0,1,0.4,1,1v40.8
	C131.3,62,130.9,62.5,130.3,62.5z"/>
<circle class="st2" cx="95.7" cy="19.8" r="14.1"/>
</svg>
