<?xml version="1.0" encoding="utf-8"?>
<!-- Generator: Adobe Illustrator 21.0.1, SVG Export Plug-In . SVG Version: 6.00 Build 0)  -->
<svg version="1.1" id="Lager_1" xmlns="http://www.w3.org/2000/svg" xmlns:xlink="http://www.w3.org/1999/xlink" x="0px" y="0px"
	 viewBox="0 0 600 600" style="enable-background:new 0 0 600 600;" xml:space="preserve">
<style type="text/css">
	.st0{fill:#4B4A4B;}
	.st1{fill:none;stroke:#4B4A4B;stroke-miterlimit:10;}
	.st2{fill:#FFFFFF;stroke:#4B4A4B;stroke-miterlimit:10;}
</style>
<path class="st0" d="M281.2,314.9h-25.1c-0.6,0-1-0.4-1-1v-4.3c0-0.6,0.4-1,1-1h25.1c0.6,0,1,0.4,1,1v4.3
	C282.2,314.5,281.8,314.9,281.2,314.9z"/>
<path class="st0" d="M281.2,306.3h-25.1c-0.6,0-1-0.4-1-1V301c0-0.6,0.4-1,1-1h25.1c0.6,0,1,0.4,1,1v4.3
	C282.2,305.9,281.8,306.3,281.2,306.3z"/>
<path class="st0" d="M255.8,331.3v-5c0-0.6,0.4-1,1-1h4.3c0.6,0,1,0.4,1,1v5c0,0.6-0.4,1-1,1h-4.3
	C256.2,332.3,255.8,331.9,255.8,331.3z"/>
<path class="st0" d="M339.5,331.3v-5c0-0.6,0.4-1,1-1h4.3c0.6,0,1,0.4,1,1v5c0,0.6-0.4,1-1,1h-4.3
	C339.9,332.3,339.5,331.9,339.5,331.3z"/>
<path class="st1" d="M361.3,325.5h-121c-0.5,0-1-0.4-1-1v-40.8c0-0.5,0.4-1,1-1h121c0.5,0,1,0.4,1,1v40.8
	C362.3,325,361.9,325.5,361.3,325.5z"/>
<circle class="st2" cx="326.7" cy="282.8" r="14.1"/>
</svg>
