<?xml version="1.0" encoding="utf-8"?>
<!-- Generator: Adobe Illustrator 21.0.1, SVG Export Plug-In . SVG Version: 6.00 Build 0)  -->
<svg version="1.1" id="Lager_1" xmlns="http://www.w3.org/2000/svg" xmlns:xlink="http://www.w3.org/1999/xlink" x="0px" y="0px"
	 viewBox="0 0 136 81" style="enable-background:new 0 0 136 81;" xml:space="preserve">
<style type="text/css">
	.st0{fill:#4B4A4B;}
	.st1{fill:none;stroke:#4B4A4B;stroke-miterlimit:10;}
</style>
<path class="st0" d="M113.8,64.4l-9.8-9.8c-0.4-0.4-0.4-1,0-1.4l3-3c0.4-0.4,1-0.4,1.4,0l9.8,9.8c0.4,0.4,0.4,1,0,1.4l-3,3
	C114.8,64.8,114.2,64.8,113.8,64.4z"/>
<path class="st1" d="M6.5,6.9h121c0.5,0,1,0.4,1,1v63c0,0.5-0.4,1-1,1H6.5c-0.5,0-1-0.4-1-1v-63C5.5,7.3,6,6.9,6.5,6.9z"/>
<line class="st1" x1="128.5" y1="70.9" x2="5.5" y2="70.9"/>
</svg>
