<?xml version="1.0" encoding="utf-8"?>
<!-- Generator: Adobe Illustrator 21.0.1, SVG Export Plug-In . SVG Version: 6.00 Build 0)  -->
<svg version="1.1" id="Lager_1" xmlns="http://www.w3.org/2000/svg" xmlns:xlink="http://www.w3.org/1999/xlink" x="0px" y="0px"
	 viewBox="0 0 600 600" style="enable-background:new 0 0 600 600;" xml:space="preserve">
<style type="text/css">
	.st0{fill:#4B4A4B;}
	.st1{fill:none;stroke:#4B4A4B;stroke-miterlimit:10;}
</style>
<path class="st0" d="M346.8,325.4l-9.8-9.8c-0.4-0.4-0.4-1,0-1.4l3-3c0.4-0.4,1-0.4,1.4,0l9.8,9.8c0.4,0.4,0.4,1,0,1.4l-3,3
	C347.8,325.8,347.2,325.8,346.8,325.4z"/>
<path class="st1" d="M239.5,267.9h121c0.5,0,1,0.4,1,1v63c0,0.5-0.4,1-1,1h-121c-0.5,0-1-0.4-1-1v-63
	C238.5,268.3,239,267.9,239.5,267.9z"/>
<line class="st1" x1="361.5" y1="331.9" x2="238.5" y2="331.9"/>
</svg>
