<?xml version="1.0" encoding="utf-8"?>
<!-- Generator: Adobe Illustrator 21.0.1, SVG Export Plug-In . SVG Version: 6.00 Build 0)  -->
<svg version="1.1" id="Lager_1" xmlns="http://www.w3.org/2000/svg" xmlns:xlink="http://www.w3.org/1999/xlink" x="0px" y="0px"
	 viewBox="0 0 138 130" style="enable-background:new 0 0 138 130;" xml:space="preserve">
<style type="text/css">
	.st0{fill:#FFFFFF;stroke:#4B4A4B;stroke-miterlimit:10;}
	.st1{fill:none;stroke:#4B4A4B;stroke-miterlimit:10;}
</style>
<path class="st0" d="M84.7,105.3c0,2.5-0.6,4.8-1.6,6.9c-0.9,1.9-2.2,3.6-3.8,5c-2.8,2.5-6.5,4-10.6,4c-4.1,0-7.8-1.5-10.6-4
	c-1.6-1.4-2.8-3.1-3.8-5c-1-2.1-1.6-4.4-1.6-6.9c0-8.8,7.1-15.9,15.9-15.9S84.7,96.5,84.7,105.3z"/>
<path class="st1" d="M44.3,79.5c5.5-7.3,14.2-12.1,24.1-12.1S87,72.1,92.4,79.5"/>
<path class="st1" d="M26.5,67.5c7-16.5,23.3-28.1,42.3-28.1s35.3,11.6,42.3,28.1"/>
<path class="st1" d="M9.5,53.5C17.1,28,40.8,9.4,68.8,9.4S120.4,28,128,53.5"/>
</svg>
