<svg id="Lager_1" data-name="Lager 1" xmlns="http://www.w3.org/2000/svg" viewBox="0 0 124 91.8"><defs><style>.cls-1{fill:#4b4a4b;}.cls-2{fill:none;stroke:#4b4a4b;stroke-miterlimit:10;}</style></defs><title>calender</title><path class="cls-1" d="M260.4,267.6V255.4a.94.94,0,0,1,1-1h3.3a.94.94,0,0,1,1,1v12.2a.94.94,0,0,1-1,1h-3.3A.94.94,0,0,1,260.4,267.6Z" transform="translate(-238.4 -254.4)"/><path class="cls-1" d="M269,267.6V255.4a.94.94,0,0,1,1-1h3.3a.94.94,0,0,1,1,1v12.2a.94.94,0,0,1-1,1H270A1,1,0,0,1,269,267.6Z" transform="translate(-238.4 -254.4)"/><path class="cls-1" d="M329.7,267.6V255.4a.94.94,0,0,1,1-1H334a.94.94,0,0,1,1,1v12.2a.94.94,0,0,1-1,1h-3.3A.94.94,0,0,1,329.7,267.6Z" transform="translate(-238.4 -254.4)"/><path class="cls-1" d="M338.4,267.6V255.4a.94.94,0,0,1,1-1h3.3a.94.94,0,0,1,1,1v12.2a.94.94,0,0,1-1,1h-3.3A.94.94,0,0,1,338.4,267.6Z" transform="translate(-238.4 -254.4)"/><path class="cls-2" d="M361.8,276.3H238.9" transform="translate(-238.4 -254.4)"/><path class="cls-2" d="M239.9,263.9h121a1,1,0,0,1,1,1v79.8a1,1,0,0,1-1,1h-121a1,1,0,0,1-1-1V264.9A.94.94,0,0,1,239.9,263.9Z" transform="translate(-238.4 -254.4)"/></svg>