<svg id="Lager_1" data-name="Lager 1" xmlns="http://www.w3.org/2000/svg" viewBox="0 0 96.5 110.8"><defs><style>.cls-1{fill:none;stroke:#4b4a4b;stroke-miterlimit:10;}.cls-2{fill:#4b4a4b;}</style></defs><title>chair</title><path class="cls-1" d="M264.4,293.3H253.9a.94.94,0,0,1-1-1V289a.94.94,0,0,1,1-1h10.5a.94.94,0,0,1,1,1v3.3A1.08,1.08,0,0,1,264.4,293.3Z" transform="translate(-252.4 -244.4)"/><path class="cls-1" d="M347.4,293.3H336.9a.94.94,0,0,1-1-1V289a.94.94,0,0,1,1-1h10.5a.94.94,0,0,1,1,1v3.3A1,1,0,0,1,347.4,293.3Z" transform="translate(-252.4 -244.4)"/><path class="cls-2" d="M306.6,355.2H294.4a.94.94,0,0,1-1-1v-3.3a.94.94,0,0,1,1-1h12.2a.94.94,0,0,1,1,1v3.3A1.08,1.08,0,0,1,306.6,355.2Z" transform="translate(-252.4 -244.4)"/><path class="cls-1" d="M342.2,293.3v18a1.75,1.75,0,0,1-1.7,1.7h-1.8" transform="translate(-252.4 -244.4)"/><path class="cls-1" d="M300.5,316.4V350" transform="translate(-252.4 -244.4)"/><path class="cls-1" d="M262.3,313h-1.8a1.75,1.75,0,0,1-1.7-1.7v-18" transform="translate(-252.4 -244.4)"/><path class="cls-1" d="M324.1,296.9H276.9a1,1,0,0,1-1-1v-50a1,1,0,0,1,1-1h47.2a1,1,0,0,1,1,1v50A1.08,1.08,0,0,1,324.1,296.9Z" transform="translate(-252.4 -244.4)"/><path class="cls-1" d="M262.7,315.4V303a1,1,0,0,1,1-1h73.5a1,1,0,0,1,1,1v12.4a1,1,0,0,1-1,1H263.7A1.08,1.08,0,0,1,262.7,315.4Z" transform="translate(-252.4 -244.4)"/></svg>