<svg id="Lager_1" data-name="Lager 1" xmlns="http://www.w3.org/2000/svg" viewBox="0 0 116.61 53.2"><defs><style>.cls-1{fill:none;}.cls-1,.cls-2{stroke:#4b4a4b;stroke-miterlimit:10;}.cls-2{fill:#fff;}</style></defs><title>food</title><path class="cls-1" d="M353.4,285.4v39.8a1,1,0,0,1-1,1H324.9a1,1,0,0,1-1-1V285.4" transform="translate(-242.2 -273.5)"/><path class="cls-1" d="M307.7,314.7v9.5a2,2,0,0,1-2,2h-52a2,2,0,0,1-2-2v-9.5" transform="translate(-242.2 -273.5)"/><path class="cls-2" d="M251.7,307.7a28.21,28.21,0,0,1,56,0" transform="translate(-242.2 -273.5)"/><path class="cls-1" d="M315.8,314.7H243.7a.94.94,0,0,1-1-1v-4.9a.94.94,0,0,1,1-1h72.1a.94.94,0,0,1,1,1v4.9A1.08,1.08,0,0,1,315.8,314.7Z" transform="translate(-242.2 -273.5)"/><path class="cls-1" d="M357.4,285.4H320a.94.94,0,0,1-1-1v-2.9a.94.94,0,0,1,1-1h37.3a.94.94,0,0,1,1,1v2.9A.92.92,0,0,1,357.4,285.4Z" transform="translate(-242.2 -273.5)"/><path class="cls-1" d="M323.4,280.5c1.2-3.7,7.5-6.5,15.2-6.5s14.1,2.8,15.2,6.5" transform="translate(-242.2 -273.5)"/></svg>