<svg id="Lager_1" data-name="Lager 1" xmlns="http://www.w3.org/2000/svg" viewBox="0 0 124 116.2"><defs><style>.cls-1{fill:#4b4a4b;}.cls-2{fill:none;stroke:#4b4a4b;stroke-miterlimit:10;}</style></defs><title>overhead</title><circle class="cls-1" cx="86.8" cy="95.6" r="4.9"/><circle class="cls-1" cx="104.8" cy="95.6" r="4.9"/><path class="cls-1" d="M255.5,356.9v-5a.94.94,0,0,1,1-1h4.3a.94.94,0,0,1,1,1v5a.94.94,0,0,1-1,1h-4.3A.94.94,0,0,1,255.5,356.9Z" transform="translate(-238.4 -241.7)"/><path class="cls-1" d="M339.1,356.9v-5a.94.94,0,0,1,1-1h4.3a.94.94,0,0,1,1,1v5a.94.94,0,0,1-1,1h-4.3A1,1,0,0,1,339.1,356.9Z" transform="translate(-238.4 -241.7)"/><path class="cls-2" d="M360.9,350.9h-121a1,1,0,0,1-1-1V309.1a1,1,0,0,1,1-1h121a1,1,0,0,1,1,1v40.8A1,1,0,0,1,360.9,350.9Z" transform="translate(-238.4 -241.7)"/><path class="cls-2" d="M310.3,255.4H359a1,1,0,0,1,1.1,1.1V307a1.11,1.11,0,0,1-1.1,1.1h-1.5a1.11,1.11,0,0,1-1.1-1.1V259.1H310.3" transform="translate(-238.4 -241.7)"/><path class="cls-2" d="M309.3,261.1H292.4a.94.94,0,0,1-1-1V243.2a.94.94,0,0,1,1-1h16.9a.94.94,0,0,1,1,1v16.9A1,1,0,0,1,309.3,261.1Z" transform="translate(-238.4 -241.7)"/></svg>