<svg id="Lager_1" data-name="Lager 1" xmlns="http://www.w3.org/2000/svg" viewBox="0 0 88.8 113.5"><defs><style>.cls-1{fill:#4b4a4b;}.cls-2{fill:none;stroke:#4b4a4b;stroke-miterlimit:10;}</style></defs><title>paperpen</title><path class="cls-1" d="M270.4,255.8h40.2a.47.47,0,0,1,.5.5v.5a.47.47,0,0,1-.5.5H270.4a.47.47,0,0,1-.5-.5v-.5C270,256,270.2,255.8,270.4,255.8Z" transform="translate(-255.9 -243.6)"/><path class="cls-1" d="M270.4,258h40.2a.47.47,0,0,1,.5.5v.5a.47.47,0,0,1-.5.5H270.4a.47.47,0,0,1-.5-.5v-.5C270,258.3,270.2,258,270.4,258Z" transform="translate(-255.9 -243.6)"/><path class="cls-1" d="M270.4,260.3h40.2a.47.47,0,0,1,.5.5v.5a.47.47,0,0,1-.5.5H270.4a.47.47,0,0,1-.5-.5v-.5C270,260.5,270.2,260.3,270.4,260.3Z" transform="translate(-255.9 -243.6)"/><path class="cls-1" d="M270.4,262.5h40.2a.47.47,0,0,1,.5.5v.5a.47.47,0,0,1-.5.5H270.4a.47.47,0,0,1-.5-.5V263C270,262.7,270.2,262.5,270.4,262.5Z" transform="translate(-255.9 -243.6)"/><path class="cls-1" d="M270.6,264.8h40.2a.47.47,0,0,1,.5.5v.5a.47.47,0,0,1-.5.5H270.6a.47.47,0,0,1-.5-.5v-.5C270.2,265,270.4,264.8,270.6,264.8Z" transform="translate(-255.9 -243.6)"/><path class="cls-1" d="M270.6,267h40.2a.47.47,0,0,1,.5.5v.5a.47.47,0,0,1-.5.5H270.6a.47.47,0,0,1-.5-.5v-.5C270.2,267.2,270.4,267,270.6,267Z" transform="translate(-255.9 -243.6)"/><path class="cls-1" d="M270.6,269.2h40.2a.47.47,0,0,1,.5.5v.5a.47.47,0,0,1-.5.5H270.6a.47.47,0,0,1-.5-.5v-.5C270.2,269.4,270.4,269.2,270.6,269.2Z" transform="translate(-255.9 -243.6)"/><path class="cls-1" d="M270.6,271.5h26.2a.47.47,0,0,1,.5.5v.5a.47.47,0,0,1-.5.5H270.6a.47.47,0,0,1-.5-.5V272C270.2,271.7,270.4,271.5,270.6,271.5Z" transform="translate(-255.9 -243.6)"/><path class="cls-1" d="M338.6,320.6,301,281.8a1,1,0,0,1,0-1.4l4.4-4.3a1,1,0,0,1,1.4,0l37.6,38.8a1,1,0,0,1,0,1.4l-4.4,4.3A1,1,0,0,1,338.6,320.6Z" transform="translate(-255.9 -243.6)"/><polyline class="cls-1" points="45.4 37.7 41.4 28.6 50.4 32.8"/><path class="cls-2" d="M324.1,356.6H257.4a1,1,0,0,1-1-1V245.1a1,1,0,0,1,1-1h66.7a1,1,0,0,1,1,1V355.6A1.08,1.08,0,0,1,324.1,356.6Z" transform="translate(-255.9 -243.6)"/></svg>