<svg id="Lager_1" data-name="Lager 1" xmlns="http://www.w3.org/2000/svg" viewBox="0 0 66 114.5"><defs><style>.cls-1{fill:none;}.cls-1,.cls-2{stroke:#4b4a4b;stroke-miterlimit:10;}.cls-2{fill:#fff;}</style></defs><title>person</title><path class="cls-1" d="M332.7,304v51.5a1,1,0,0,1-1,1h-63a.94.94,0,0,1-1-1V304" transform="translate(-267.2 -242.5)"/><line class="cls-1" x1="15.2" y1="30.7" x2="14.7" y2="30.7"/><line class="cls-1" x1="51.3" y1="30.7" x2="50.8" y2="30.7"/><path class="cls-2" d="M320.6,263.4a19.63,19.63,0,0,1-2,8.8,21.52,21.52,0,0,1-4.8,6.4A20.31,20.31,0,0,1,280,263.4a20.3,20.3,0,1,1,40.6,0Z" transform="translate(-267.2 -242.5)"/><path class="cls-1" d="M267.7,304.5a32.36,32.36,0,0,1,16.7-28.4" transform="translate(-267.2 -242.5)"/><path class="cls-1" d="M316,276.1a32.48,32.48,0,0,1,16.7,28.4" transform="translate(-267.2 -242.5)"/></svg>