<svg id="Lager_1" data-name="Lager 1" xmlns="http://www.w3.org/2000/svg" viewBox="0 0 124 66"><defs><style>.cls-1{fill:#4b4a4b;}.cls-2{fill:none;stroke:#4b4a4b;stroke-miterlimit:10;}</style></defs><title>whiteboard</title><path class="cls-1" d="M346.8,325.4l-9.8-9.8a1,1,0,0,1,0-1.4l3-3a1,1,0,0,1,1.4,0l9.8,9.8a1,1,0,0,1,0,1.4l-3,3A1,1,0,0,1,346.8,325.4Z" transform="translate(-238 -267.4)"/><path class="cls-2" d="M239.5,267.9h121a1,1,0,0,1,1,1v63a1,1,0,0,1-1,1h-121a1,1,0,0,1-1-1v-63A1,1,0,0,1,239.5,267.9Z" transform="translate(-238 -267.4)"/><line class="cls-2" x1="123.5" y1="64.5" x2="0.5" y2="64.5"/></svg>